# xmcd
#
# Track frame offsets: 
#        150
#        15837
#        31560
#        49622
#        70160
#        89865
#        108962
#        125510
#        146365
#        163122
#        180777
#        194230
#        213382
#        229032
#        247412
#
# Disc length: 3545 seconds
#
# Revision: 6
# Processed by: cddbd v1.5.2PL0 Copyright (c) Steve Scherf et al.
# Submitted via: ExactAudioCopy v0.95a4
#
DISCID=cb0dd70f
DTITLE=The Corrs - In Blue
DYEAR=2000
DGENRE=Popular
TTITLE0=Breathless
TTITLE1=Give Me A Reason
TTITLE2=Somebody For Someone
TTITLE3=Say
TTITLE4=All The Love In The World
TTITLE5=Radio
TTITLE6=Irresistible
TTITLE7=One Night
TTITLE8=All In A Day
TTITLE9=At Your Side
TTITLE10=No More Cry
TTITLE11=Rain
TTITLE12=Give It All Up
TTITLE13=Hurt Before
TTITLE14=Rebel Heart
EXTD=
EXTT0=
EXTT1=
EXTT2=
EXTT3=
EXTT4=
EXTT5=
EXTT6=
EXTT7=
EXTT8=
EXTT9=
EXTT10=
EXTT11=
EXTT12=
EXTT13=
EXTT14=
PLAYORDER=
